<?xml version="1.0" standalone="no"?>
<!DOCTYPE svg PUBLIC "-//W3C//DTD SVG 20010904//EN"
 "http://www.w3.org/TR/2001/REC-SVG-20010904/DTD/svg10.dtd">
<svg version="1.0" xmlns="http://www.w3.org/2000/svg"
 width="500.000000pt" height="500.000000pt" viewBox="0 0 500.000000 500.000000"
 preserveAspectRatio="xMidYMid meet">
<metadata>
Created by potrace 1.11, written by Peter Selinger 2001-2013
</metadata>
<g transform="translate(0.000000,500.000000) scale(0.100000,-0.100000)"
fill="#000000" stroke="none">
<path d="M2250 4978 c-456 -94 -784 -397 -915 -843 -21 -72 -27 -107 -41 -220
-18 -146 9 -338 80 -555 30 -93 39 -115 133 -309 87 -180 129 -282 144 -349
34 -149 13 -308 -60 -450 -12 -23 -21 -46 -21 -52 0 -8 29 -11 87 -9 76 2 122
10 207 36 17 6 18 2 11 -43 -10 -68 -57 -162 -110 -220 -67 -73 -72 -84 -38
-85 44 -2 156 1 181 6 23 4 24 3 18 -58 -8 -98 -16 -160 -22 -192 -4 -16 -8
-41 -9 -55 -2 -14 -8 -53 -14 -87 -7 -35 -14 -75 -17 -90 -2 -16 -9 -48 -14
-73 -5 -25 -12 -57 -14 -73 -3 -15 -7 -35 -10 -45 -3 -9 -7 -33 -10 -52 -3
-19 -15 -80 -26 -135 -11 -55 -23 -113 -26 -130 -2 -16 -7 -37 -10 -46 -2 -10
-6 -30 -9 -45 -2 -16 -17 -105 -33 -199 -17 -93 -29 -192 -27 -219 16 -216
385 -380 855 -380 273 0 520 68 658 181 53 43 117 128 127 168 5 17 10 37 12
45 9 30 11 239 3 277 -5 21 -11 60 -15 87 -32 247 -219 733 -394 1021 -23 37
-41 69 -41 71 0 1 -21 34 -47 71 l-47 68 51 -51 c59 -59 118 -89 193 -99 l55
-7 -23 25 c-40 43 -69 130 -67 200 5 127 58 255 220 532 195 332 296 525 365
699 56 142 100 320 104 419 0 15 3 27 6 27 8 0 5 135 -4 148 -4 7 -2 12 4 12
7 0 8 6 2 18 -5 9 -9 33 -11 52 -3 64 -43 214 -82 309 -140 344 -455 611 -812
690 -23 6 -55 13 -72 17 -16 3 -109 8 -205 9 -143 3 -192 0 -270 -17z m40
-100 c-14 -13 -27 -22 -30 -22 -7 2 -65 -59 -62 -66 1 -3 -7 -14 -16 -25 -10
-11 -19 -24 -20 -30 -9 -33 -25 -92 -29 -105 -7 -21 -5 -178 1 -189 13 -21
-36 4 -55 28 -12 14 -22 24 -22 23 -4 -7 -57 22 -57 30 0 5 -3 7 -7 5 -5 -3
-19 0 -33 6 -14 5 -32 11 -40 13 -32 7 -166 6 -182 -1 -10 -4 -29 -8 -43 -9
-14 0 -25 -4 -25 -8 0 -5 -6 -8 -12 -8 -7 0 29 41 81 90 52 50 96 88 98 86 2
-2 16 7 30 20 14 13 30 24 35 24 5 0 18 9 30 20 12 10 25 17 30 14 4 -3 8 -1
8 3 0 13 89 55 101 48 5 -4 9 -2 9 3 0 12 89 44 100 37 5 -3 10 -1 12 4 1 5
20 11 41 14 21 3 41 8 44 11 4 3 13 6 22 6 11 0 8 -6 -9 -22z m550 -93 c14 -3
34 -7 45 -9 77 -16 205 -94 286 -175 88 -89 124 -163 124 -253 -1 -59 -4 -71
-31 -105 -105 -132 -350 -113 -566 44 -132 96 -217 247 -196 348 27 126 165
187 338 150z m-624 -449 c17 -18 18 -24 2 -39 -33 -31 -74 5 -45 39 16 17 25
17 43 0z m-428 -87 c85 -41 162 -181 179 -324 42 -353 -190 -636 -385 -470
-130 112 -182 350 -122 565 54 196 194 293 328 229z m474 -27 c-7 -2 -10 -8
-6 -13 7 -12 -7 -11 -26 1 -13 9 -13 11 -1 19 8 5 21 6 30 3 10 -4 11 -7 3
-10z m1307 -99 c10 -38 25 -93 32 -123 13 -58 18 -291 7 -375 -10 -81 -40
-186 -51 -182 -6 2 -19 28 -28 58 -25 80 -47 119 -100 170 -45 44 -124 89
-181 103 -16 3 -28 10 -28 15 0 6 33 26 73 45 78 39 106 60 153 121 34 42 74
150 74 195 0 27 7 40 21 40 5 0 17 -30 28 -67z m-1222 -15 c30 -33 73 -71 113
-99 19 -13 43 -32 54 -42 29 -25 210 -112 286 -137 36 -12 72 -26 80 -32 12
-8 12 -9 -2 -4 -10 3 -18 2 -18 -3 0 -5 -21 -14 -47 -21 -148 -37 -361 -160
-454 -262 -9 -10 -23 -18 -31 -18 -12 0 -11 11 5 73 15 55 20 106 20 217 1
127 -3 157 -26 243 -15 55 -27 101 -27 103 0 12 29 1 47 -18z m803 -309 c0
-16 -23 -36 -42 -36 -26 0 -34 36 -12 52 20 14 54 4 54 -16z m-123 5 c8 -22
-15 -44 -26 -25 -10 16 -4 41 10 41 5 0 12 -7 16 -16z m213 -353 c131 -72 137
-218 16 -366 -127 -155 -329 -257 -506 -257 -79 0 -107 5 -151 27 -161 81
-113 319 95 473 67 49 204 120 247 127 15 3 36 8 47 12 32 12 224 0 252 -16z
m-958 -55 c6 4 8 -2 6 -12 -2 -13 -11 -18 -23 -16 -28 5 -30 9 -14 28 8 10 15
12 17 5 2 -6 8 -8 14 -5z m-46 -90 c18 -19 18 -22 -4 -44 -17 -17 -57 -19 -47
-1 4 5 1 9 -4 9 -26 0 1 49 27 50 7 0 20 -6 28 -14z m-76 -126 c0 -5 -5 -10
-11 -10 -5 0 -7 5 -4 10 3 6 8 10 11 10 2 0 4 -4 4 -10z m-5 -42 c-40 -177 -6
-404 88 -583 45 -87 134 -218 214 -316 38 -46 100 -123 138 -170 39 -48 80
-99 93 -115 13 -16 66 -92 117 -169 131 -196 214 -368 313 -645 3 -8 6 -19 8
-25 1 -5 15 -48 29 -95 70 -220 99 -452 71 -571 -48 -209 -241 -311 -601 -318
l-90 -2 71 34 c131 64 221 177 265 332 19 65 23 106 24 220 0 150 -4 195 -30
320 -77 376 -317 861 -552 1115 l-56 61 -25 -43 c-62 -106 -151 -162 -289
-182 -33 -4 -47 14 -23 29 18 11 58 99 75 166 19 70 23 167 11 242 -7 45 -26
66 -26 29 0 -28 -55 -99 -98 -126 -37 -23 -130 -56 -158 -56 -15 0 -12 12 15
90 11 31 22 69 26 85 6 36 7 167 1 212 -16 108 -68 257 -127 359 -25 44 -28
55 -16 60 9 3 25 0 37 -6 26 -14 146 -37 180 -35 103 7 186 38 250 94 43 37
73 41 65 9z m180 -1218 c102 -129 199 -274 255 -381 60 -114 60 -155 3 -271
-32 -64 -58 -99 -99 -137 -78 -72 -154 -108 -177 -85 -8 8 9 40 34 68 32 34
62 104 55 131 -14 54 -93 91 -140 65 -28 -14 -53 -56 -61 -98 -13 -74 -37
-101 -63 -69 -23 27 -59 154 -68 242 -5 49 -5 291 0 325 2 14 7 43 10 65 18
112 34 149 88 197 29 26 60 48 68 48 9 0 52 -45 95 -100z m-378 -622 c-3 -8
-6 -5 -6 6 -1 11 2 17 5 13 3 -3 4 -12 1 -19z m16 -145 c1 -152 -19 -253 -64
-334 -15 -26 -69 -83 -74 -77 -2 1 10 55 26 118 31 120 56 237 65 305 3 22 10
55 16 73 18 58 31 21 31 -85z m685 -15 c-18 -194 -97 -354 -242 -492 -171
-162 -425 -250 -551 -190 -41 19 -57 43 -62 94 -5 47 4 57 57 64 164 23 284
70 431 169 156 105 290 256 346 392 10 25 20 45 24 45 3 0 1 -37 -3 -82z m98
-25 c0 -16 4 -41 7 -58 25 -112 29 -354 7 -455 -36 -167 -107 -280 -222 -353
-165 -105 -389 -104 -603 3 -44 22 -91 48 -104 59 -24 19 -24 19 75 18 92 -1
176 7 193 18 4 2 20 6 36 9 39 7 165 68 222 108 69 46 174 153 221 224 81 121
138 279 144 399 3 56 22 78 24 28z"/>
<path d="M1980 4670 c0 -11 0 -22 1 -26 0 -3 -7 -16 -15 -30 -16 -24 -16 -24
14 -24 18 0 38 -7 46 -15 23 -22 31 -18 26 13 -2 18 2 35 12 45 24 24 19 34
-16 34 -18 0 -34 5 -36 11 -6 20 -32 13 -32 -8z"/>
<path d="M2692 4588 c-16 -16 -15 -35 3 -42 22 -8 49 23 34 40 -14 17 -21 18
-37 2z"/>
<path d="M2747 4459 c-38 -29 -24 -86 24 -94 63 -11 91 77 33 104 -31 14 -27
15 -57 -10z"/>
<path d="M3027 4457 c-3 -8 -22 -20 -42 -27 -33 -11 -35 -14 -21 -28 8 -10 18
-30 21 -45 l7 -28 22 20 c12 12 35 21 52 21 27 1 28 2 11 15 -11 7 -25 30 -31
50 -9 25 -15 32 -19 22z"/>
<path d="M1681 4083 c-25 -17 -27 -46 -5 -67 23 -23 59 -20 71 7 22 48 -24 90
-66 60z"/>
<path d="M1620 3890 c0 -23 35 -28 43 -6 7 18 -1 26 -25 26 -11 0 -18 -7 -18
-20z"/>
<path d="M1842 3858 c-8 -8 -9 -15 -1 -25 15 -17 25 -17 32 1 8 21 -16 39 -31
24z"/>
<path d="M1723 3769 c-18 -11 -45 -21 -62 -21 l-29 -1 20 -28 c12 -15 21 -42
20 -59 0 -16 4 -30 9 -30 5 0 9 4 9 9 0 14 57 34 83 29 l22 -4 -22 43 c-12 24
-20 53 -18 63 5 24 7 24 -32 -1z"/>
<path d="M3446 3818 c-16 -16 -24 -28 -18 -28 6 0 20 -10 31 -22 19 -19 21
-20 27 -4 4 10 15 21 24 24 15 6 14 10 -9 32 l-26 25 -29 -27z"/>
<path d="M2936 3334 c-7 -19 1 -34 19 -34 18 0 26 25 12 39 -15 15 -24 14 -31
-5z"/>
<path d="M2767 3254 c-15 -8 -32 -12 -38 -8 -6 3 -3 -8 6 -25 9 -17 13 -36 10
-41 -8 -14 -5 -13 37 8 31 16 34 21 22 36 -7 10 -10 24 -7 32 6 17 5 17 -30
-2z"/>
<path d="M3026 3215 c-11 -8 -30 -15 -43 -15 -23 0 -23 -1 -7 -31 8 -17 14
-39 11 -49 -4 -17 -2 -16 29 2 20 12 41 17 54 13 20 -6 20 -6 -1 29 -12 20
-18 43 -15 51 7 19 -3 19 -28 0z"/>
<path d="M2782 3093 c-24 -9 -34 -53 -18 -78 21 -32 51 -37 81 -13 55 43 4
118 -63 91z"/>
<path d="M2020 2966 c-13 -8 -32 -13 -41 -11 -16 3 -16 1 -3 -30 7 -19 11 -42
7 -51 -6 -17 -5 -17 17 -1 14 9 37 17 52 17 28 0 28 1 15 28 -8 15 -13 35 -12
45 4 20 -2 21 -35 3z"/>
<path d="M1912 2783 c5 -26 38 -29 38 -4 0 15 -6 21 -21 21 -14 0 -19 -5 -17
-17z"/>
<path d="M2947 1086 c-5 -13 10 -36 24 -36 14 0 19 34 7 42 -18 11 -25 10 -31
-6z"/>
<path d="M2993 952 c-21 -14 -20 -57 3 -66 42 -16 74 43 35 64 -23 12 -23 12
-38 2z"/>
<path d="M3033 779 c-26 -10 -40 -53 -24 -73 20 -24 51 -26 72 -5 38 38 1 98
-48 78z"/>
<path d="M3045 560 c-3 -10 -21 -24 -38 -31 l-33 -11 28 -30 c15 -17 28 -36
28 -44 0 -20 10 -17 31 10 10 13 30 27 44 30 l26 7 -31 25 c-16 14 -30 34 -30
45 0 25 -17 25 -25 -1z"/>
<path d="M2369 1597 c-7 -15 -30 -39 -52 -51 l-39 -24 28 -13 c16 -8 36 -29
44 -46 17 -38 26 -41 35 -13 8 24 56 60 81 60 13 0 7 8 -20 26 -21 14 -44 40
-51 57 l-13 32 -13 -28z"/>
<path d="M2670 624 c0 -8 5 -12 10 -9 6 3 10 10 10 16 0 5 -4 9 -10 9 -5 0
-10 -7 -10 -16z"/>
<path d="M2613 534 c-3 -8 -1 -20 5 -26 15 -15 43 8 35 28 -7 19 -32 18 -40
-2z"/>
<path d="M2518 443 c-10 -2 -18 -8 -18 -13 0 -5 -2 -14 -5 -22 -13 -36 43 -58
70 -28 16 18 17 21 1 45 -9 14 -20 24 -24 24 -4 -1 -15 -3 -24 -6z"/>
<path d="M2363 359 c-30 -11 -40 -54 -19 -78 32 -35 90 -12 84 34 -4 35 -35
56 -65 44z"/>
</g>
</svg>
